<?xml version="1.0" encoding="utf-8"?>
<!DOCTYPE svg PUBLIC "-//W3C//DTD SVG 1.1//EN" "http://www.w3.org/Graphics/SVG/1.1/DTD/svg11.dtd">
<svg version="1.1" id="layer-1" xmlns="http://www.w3.org/2000/svg" x="0px" y="0px"
     width="288.174px" height="174.075px" viewBox="0 0 288.174 174.075" enable-background="new 0 0 288.174 174.075"
     xml:space="preserve">
<path d="M118.277,69.152H16.57c-6.018,0-10.896,4.719-10.896,10.541v78.17c0,5.82,4.879,10.539,10.896,10.539h101.707
	c6.018,0,10.896-4.719,10.896-10.539v-78.17C129.174,73.871,124.295,69.152,118.277,69.152z"/>
<path fill="none" stroke="#000000" stroke-width="14" d="M31.924,64.648V48.673c0-19.605,15.894-35.5,35.5-35.5
	s35.5,15.895,35.5,35.5v15.975"/>
<g>
	<path d="M143.619,148.83l0.651-5.766c4.65-3.441,6.603-4.929,9.486-7.347c5.766-4.929,11.625-10.603,15.625-15.066
		c6.138-7.068,9.3-13.393,9.3-18.693c0-6.045-4.371-10.417-10.509-10.417c-4.836,0-9.858,2.232-14.416,6.604
		c-1.767,1.581-2.604,2.697-4.557,5.487c0.558-2.976,0.744-4.464,0.744-6.789c0-0.372,0-0.837-0.093-1.674
		c5.766-6.231,11.998-9.208,19.065-9.208c9.486,0,15.903,5.952,15.903,14.974c0,7.998-5.115,16.833-15.903,27.342
		c-2.79,2.697-6.789,6.324-10.137,9.021c-3.72,3.069-5.487,4.278-8.928,6.138l-0.093,0.558h30.226l-0.651,4.836H143.619z"/>
	<path d="M192.815,148.83l7.533-62.033h35.713l-0.651,5.395h-30.133l-2.79,22.785h30.04l-0.651,5.301h-30.04l-3.534,28.552H192.815z
		"/>
	<path d="M230.294,148.83l28.924-62.033h8.649l13.671,62.033h-5.859l-4.371-19.81h-25.948l-9.207,19.81H230.294z M247.686,123.905
		h22.506l-6.696-30.598c-0.093-0.372-0.186-1.302-0.186-2.511h-0.558c0,0.186-0.093,0.279-0.093,0.372
		c0,0.093-0.093,0.372-0.186,0.651c-0.279,1.023-0.465,1.302-0.465,1.488L247.686,123.905z"/>
</g>
<g>
	<line fill="none" stroke="#FFFFFF" stroke-width="14" stroke-linecap="round" x1="46.924" y1="99.38" x2="46.924" y2="138.173"/>
	<circle fill="#FFFFFF" cx="46.924" cy="105.38" r="14.5"/>
</g>
<g>
	<line fill="none" stroke="#FFFFFF" stroke-width="14" stroke-linecap="round" x1="87.924" y1="99.38" x2="87.924" y2="138.173"/>
	<circle fill="#FFFFFF" cx="87.924" cy="105.38" r="14.5"/>
</g>
</svg>
